<?xml version="1.0" encoding="utf-8"?>
<!-- Generator: Adobe Illustrator 22.1.0, SVG Export Plug-In . SVG Version: 6.00 Build 0)  -->
<svg version="1.1" id="Layer_1" xmlns="http://www.w3.org/2000/svg" xmlns:xlink="http://www.w3.org/1999/xlink" x="0px" y="0px"
	 viewBox="0 0 100 16" style="enable-background:new 0 0 100 16;" xml:space="preserve">
<style type="text/css">
	.st0{fill:#E50914;}
</style>
<g>
	<g>
		<path class="st0" d="M5.6,10.6C5.7,10.6,5.7,10.6,5.6,10.6c0.7-4.1,1-6.2,1.6-10.2c1.3,0,2,0,3.3,0c0,5.5,0,8.2-0.1,13.6
			c-0.9,0.1-1.3,0.2-2.2,0.3c0-4,0-6,0-10c0,0,0,0,0,0c-0.6,4-1,6.1-1.6,10.2c-0.9,0.1-1.3,0.2-2.2,0.3c-0.7-4-1-6-1.7-10.2
			c0,0,0,0,0,0c0,4.2,0,6.3,0,10.5c-0.8,0.1-1.2,0.2-2,0.3c0-6.1,0-9.1,0-15.1c1.3,0,2,0,3.3,0C4.6,4.6,5,6.6,5.6,10.6z"/>
		<path class="st0" d="M12.2,3.6c0-2.1,1.3-3.4,3.6-3.4s3.6,1.2,3.6,3.2c0,2.6,0,3.9,0,6.5c0,2-1.3,3.3-3.6,3.6s-3.6-0.8-3.5-2.9
			C12.2,7.8,12.2,6.4,12.2,3.6z M14.5,10.5c0,0.9,0.5,1.2,1.2,1.2c0.7-0.1,1.2-0.5,1.2-1.4c0-2.8,0-4.2,0-6.9c0-0.9-0.5-1.3-1.2-1.2
			c-0.7,0-1.2,0.4-1.2,1.3C14.5,6.3,14.5,7.7,14.5,10.5z"/>
		<path class="st0" d="M24.4,10.3C24.4,10.3,24.4,10.2,24.4,10.3c0.8-4,1.1-6,1.9-9.9c0.9,0,1.3,0,2.2,0c-0.9,4.7-1.4,7.1-2.4,11.9
			c-1.4,0.1-2.1,0.2-3.5,0.3c-0.9-4.8-1.3-7.3-2.2-12.3c0.9,0,1.4,0,2.4,0C23.4,4.4,23.7,6.4,24.4,10.3z"/>
		<path class="st0" d="M29.6,0.4c0.9,0,1.4,0,2.4,0c0,4.6,0,6.9-0.1,11.5C31,12,30.5,12,29.6,12.1C29.6,7.4,29.6,5.1,29.6,0.4z"/>
		<path class="st0" d="M36.1,5.1c1.3,0,1.9,0,3.2-0.1c0,0.6,0,1,0,1.6c-1.3,0-1.9,0-3.2,0.1c0,1.3,0,2,0,3.3
			c1.6-0.1,2.4-0.1,4.1-0.1c0,0.6,0,1,0,1.6c-2.6,0.1-3.9,0.1-6.4,0.3c0-4.6,0-6.8,0.1-11.4c2.6,0,3.8,0,6.4,0c0,0.6,0,1,0,1.6
			c-1.6,0-2.4,0-4.1,0C36.1,3.3,36.1,3.9,36.1,5.1z"/>
		<path class="st0" d="M41.1,0.4c2.9,0,4.4,0,7.3,0c0,0.6,0,0.9,0,1.6c-1,0-1.5,0-2.5,0c0,3.8,0,5.7,0,9.4c-0.9,0-1.4,0-2.4,0
			c0-3.8,0-5.7,0-9.5c-1,0-1.5,0-2.5,0C41.1,1.3,41.1,1,41.1,0.4z"/>
		<path class="st0" d="M54.4,11.4c-0.1-0.3-0.2-0.5-0.2-1.4c0-0.7,0-1,0-1.7c0-1-0.5-1.4-1.5-1.4c-0.3,0-0.5,0-0.8,0
			c0,1.8,0,2.7,0,4.5c-0.9,0-1.4,0-2.4,0c0-4.4,0-6.6,0-11c1.4,0,2.1,0,3.5,0c2.4,0,3.5,0.8,3.5,2.5c0,0.3,0,0.5,0,0.9
			c0,1.1-0.5,1.9-1.5,2.2c0,0,0,0,0,0c1.2,0.4,1.6,1.2,1.6,2.3c0,0.7,0,1,0,1.7c0,0.5,0,0.9,0.3,1.3C55.9,11.4,55.4,11.4,54.4,11.4z
			 M51.9,1.9c0,1.3,0,2,0,3.4c0.4,0,0.6,0,0.9,0c0.9,0,1.4-0.3,1.4-1.2c0-0.4,0-0.6,0-1.1c0-0.8-0.4-1.1-1.2-1.1
			C52.5,1.9,52.3,1.9,51.9,1.9z"/>
		<path class="st0" d="M65.9,11.8c-1-0.1-1.4-0.1-2.4-0.1c-0.2-0.8-0.2-1.2-0.4-2.1c-1.2,0-1.7-0.1-2.9-0.1c-0.2,0.8-0.2,1.2-0.4,2
			c-0.9,0-1.3,0-2.2-0.1C58.6,7,59,4.8,60,0.4c1.4,0,2.1,0,3.4,0C64.4,4.9,64.9,7.2,65.9,11.8z M60.5,8c0.9,0,1.4,0,2.3,0.1
			c-0.5-2.3-0.7-3.4-1.1-5.7c0,0,0,0,0,0C61.1,4.6,60.9,5.7,60.5,8z"/>
		<path class="st0" d="M73.9,7.9c0,0.6,0,0.9,0,1.6c0,1.9-1.2,2.9-3.5,2.7c-2.3-0.2-3.5-1.3-3.5-3.1c0-2.4,0-3.6,0-5.9
			c0-1.8,1.2-2.9,3.5-2.9c2.3,0,3.5,1.1,3.5,3c0,0.5,0,0.7,0,1.2c-0.9,0-1.3,0-2.2-0.1c0-0.5,0-0.8,0-1.3c0-0.8-0.5-1.2-1.2-1.2
			S69.2,2.2,69.2,3c0,2.5,0,3.8,0,6.3c0,0.8,0.5,1.2,1.2,1.2s1.2-0.2,1.2-1.1c0-0.7,0-1,0-1.7C72.5,7.8,73,7.8,73.9,7.9z"/>
		<path class="st0" d="M78.5,7.8c-0.3,0.4-0.4,0.6-0.7,1.1c0,1.5,0,2.3,0,3.8c-0.9-0.1-1.4-0.1-2.4-0.2c0-4.8,0-7.2-0.1-12
			c0.9,0,1.4,0,2.4,0c0,2.1,0,3.2,0,5.3c0,0,0,0,0,0c1.2-2.1,1.8-3.1,3-5.3c0.9,0,1.4,0,2.4,0c-1.3,2.3-1.9,3.4-3.2,5.6
			c1.3,2.8,2,4.3,3.3,7.3c-1-0.1-1.4-0.2-2.4-0.3C79.9,10.9,79.4,9.8,78.5,7.8z"/>
		<path class="st0" d="M86.7,6c1.3,0.1,1.9,0.1,3.2,0.2c0,0.8,0,1.2,0,2C88.6,8,88,8,86.7,7.9c0,1.6,0,2.3,0,3.9
			c1.6,0.2,2.4,0.3,4.1,0.5c0,0.8,0,1.2,0,2c-2.6-0.4-3.8-0.5-6.4-0.8c0-5.2,0-7.8-0.1-13c2.6,0,3.8,0,6.4,0c0,0.8,0,1.2,0,2
			c-1.6,0-2.4-0.1-4.1-0.1C86.7,3.8,86.7,4.5,86.7,6z"/>
		<path class="st0" d="M97.2,15.2c-0.1-0.4-0.2-0.6-0.2-1.8c0-0.9,0-1.4,0-2.3c0-1.4-0.5-1.9-1.5-2c-0.3,0-0.5,0-0.8-0.1
			c0,2.3,0,3.5,0,5.8c-0.9-0.1-1.4-0.2-2.3-0.4c0-5.6,0-8.4,0-14c1.4,0,2.1,0,3.5,0c2.4,0,3.5,1.1,3.5,3.5c0,0.5,0,0.7,0,1.2
			c0,1.6-0.5,2.5-1.5,2.9c0,0,0,0,0,0c1.2,0.6,1.6,1.8,1.6,3.3c0,0.9,0,1.4,0,2.3c0,0.7,0,1.3,0.3,1.9
			C98.6,15.4,98.2,15.3,97.2,15.2z M94.6,2.5c0,1.8,0,2.6,0,4.4c0.4,0,0.6,0,0.9,0.1C96.4,7,97,6.7,97,5.5c0-0.6,0-0.9,0-1.5
			c0-1.1-0.4-1.5-1.2-1.5C95.3,2.5,95.1,2.5,94.6,2.5z"/>
	</g>
</g>
</svg>
