<?xml version="1.0" encoding="utf-8"?>
<!-- Generator: Adobe Illustrator 22.1.0, SVG Export Plug-In . SVG Version: 6.00 Build 0)  -->
<svg version="1.1" id="Layer_1" xmlns="http://www.w3.org/2000/svg" xmlns:xlink="http://www.w3.org/1999/xlink" x="0px" y="0px"
	 viewBox="0 0 48 48" style="enable-background:new 0 0 48 48;" xml:space="preserve">
<style type="text/css">
	.st0{fill:#FFFFFF;}
</style>
<path class="st0" d="M4.9,17.6c0-7,5.7-12.8,12.8-12.8s12.8,5.7,12.8,12.8s-5.7,12.8-12.8,12.8S4.9,24.6,4.9,17.6z M31,28
	c2.3-3,3.6-6.6,3.6-10.4c0-9.4-7.7-17-17-17s-17,7.7-17,17s7.7,17,17,17c3.8,0,7.4-1.3,10.4-3.6l15.7,15.7c0.4,0.4,1.1,0.6,1.5,0.6
	s1.1-0.2,1.5-0.6c0.9-0.9,0.9-2.1,0-3L31,28z"/>
</svg>
