<?xml version="1.0" encoding="utf-8"?>
<!-- Generator: Adobe Illustrator 22.1.0, SVG Export Plug-In . SVG Version: 6.00 Build 0)  -->
<svg version="1.1" id="Capa_1" xmlns="http://www.w3.org/2000/svg" xmlns:xlink="http://www.w3.org/1999/xlink" x="0px" y="0px"
	 viewBox="0 0 42 42" style="enable-background:new 0 0 42 42;" xml:space="preserve">
<style type="text/css">
	.st0{clip-path:url(#SVGID_2_);}
	.st1{fill:#E50914;}
	.st2{fill:#0E3789;}
	.st3{fill:#FEFEFE;}
</style>
<g>
	<defs>
		<rect id="SVGID_1_" width="42" height="42"/>
	</defs>
	<clipPath id="SVGID_2_">
		<use xlink:href="#SVGID_1_"  style="overflow:visible;"/>
	</clipPath>
	<g class="st0">
		<path class="st1" d="M48.9,25.1c0,15.3-12.4,27.8-27.8,27.8S-6.7,40.4-6.7,25.1C-6.7,14-0.2,4.4,9.2,0c3.6-1.7,7.6-2.7,11.9-2.7
			C36.4-2.7,48.9,9.7,48.9,25.1z"/>
		<path class="st2" d="M34.2-6.1c-23,39.7,5.7,52.6,9.2,54c6.1-6.1,9.9-14.5,9.9-23.8C53.3,10.7,45.5-0.8,34.2-6.1z"/>
		<path class="st2" d="M-11.3,24.1c0,9.3,3.8,17.7,9.9,23.8l1.3,0.2c0,0,32.6-11.9,8-54.2C-3.5-0.8-11.3,10.7-11.3,24.1z"/>
		<ellipse transform="matrix(0.6227 -0.7825 0.7825 0.6227 -14.2524 14.6589)" class="st3" cx="8.1" cy="22.1" rx="5" ry="6.8"/>
		<ellipse transform="matrix(0.7825 -0.6227 0.6227 0.7825 -6.3904 25.9077)" class="st3" cx="33.9" cy="22.1" rx="6.8" ry="5"/>
	</g>
</g>
</svg>
