<?xml version="1.0" encoding="utf-8"?>
<!-- Generator: Adobe Illustrator 22.1.0, SVG Export Plug-In . SVG Version: 6.00 Build 0)  -->
<svg version="1.1" id="Capa_1" xmlns="http://www.w3.org/2000/svg" xmlns:xlink="http://www.w3.org/1999/xlink" x="0px" y="0px"
	 viewBox="0 0 42 42" style="enable-background:new 0 0 42 42;" xml:space="preserve">
<style type="text/css">
	.st0{clip-path:url(#SVGID_2_);}
	.st1{fill:#E50914;}
	.st2{fill:#242424;}
	.st3{fill:#1A1A1A;}
	.st4{fill:#FFD7CC;}
	.st5{fill:#F2CCC2;}
	.st6{fill:#FFE1D9;}
	.st7{fill:#F2D6CE;}
	.st8{fill:#FFF466;}
	.st9{fill:#F5F5F5;}
</style>
<g>
	<defs>
		<rect id="SVGID_1_" width="42" height="42"/>
	</defs>
	<clipPath id="SVGID_2_">
		<use xlink:href="#SVGID_1_"  style="overflow:visible;"/>
	</clipPath>
	<g class="st0">
		<circle class="st1" cx="20.7" cy="31.9" r="41.6"/>
		<g>
			<path class="st2" d="M-0.4,58.7c2.8-1.8,8.7-4,14-5.3v-8.9c-3.4-3.3-5.8-7.9-5.8-10V18.8v-0.5v-3.9c3.8-0.2,10.5-3.4,13-6.5
				c2.5,3.1,9.2,6.2,13,6.5v3.9v0.5v15.7c0,2.1-2.5,6.7-5.8,10v8.9c5.3,1.3,11.2,3.5,14,5.3c0.8,0.5,1.4,1.1,2,1.8
				c0.9,1.2,1.4,2.7,1.7,4.3c2.5-2.5,2.6-6.2,0.2-11.9c-2.5-5.8-10.2-12.3-9.4-32.3c0.2-9.1-7.5-16.5-17-17.2
				C13.1,3.9,1.3,8.8,2.4,25.6c1.2,17.9-6,21.8-9.7,21.7c1.2,2.1,4.1,4.1,5.8,4.5c-3.9,2.4-7.3,3.2-12.1,2.9c0.2,0,0.4,0,0.5,0
				c-0.3,0-0.5,0-0.8,0c2.1,3.1,4.5,5.9,7.4,8.4c0.8,0.4,1.7,0.8,2.5,1.2C-3.5,62-2.5,59.9-0.4,58.7z"/>
			<path class="st2" d="M50.1,58.9c0,0.3,0,0.6,0.1,1C50.1,59.5,50.1,59.2,50.1,58.9z"/>
			<path class="st2" d="M20.2,3.3c0.2,0,0.4,0,0.6,0C20.6,3.3,20.4,3.3,20.2,3.3z"/>
			<path class="st2" d="M48.4,52.9c1,2.3,1.6,4.2,1.7,5.9C49.9,57.2,49.4,55.2,48.4,52.9z"/>
			<path class="st2" d="M19.5,3.4c0.2,0,0.4,0,0.5,0C19.9,3.4,19.7,3.4,19.5,3.4z"/>
			<path class="st2" d="M38.9,22.5c0-0.6,0-1.2,0-1.8c0-0.3,0-0.6,0-0.9c0,0.3,0,0.6,0,0.9C38.9,21.2,38.9,21.9,38.9,22.5z"/>
		</g>
		<g>
			<path class="st3" d="M50.1,58.9c-0.2-1.7-0.7-3.6-1.7-5.9c-2.5-5.6-9.7-11.8-9.5-30.5c0-0.6,0-1.2,0-1.8c0-0.3,0-0.6,0-0.9
				c-0.2-7.4-5.6-13.5-12.7-15.6c-1.7-0.5-3.6-0.8-5.4-0.8c-0.2,0-0.4,0-0.6,0h-0.1c-0.2,0-0.4,0-0.5,0l0,0l0,0
				c9.4,0.7,17.1,8.1,16.8,17.2c-0.7,20.1,6.9,26.5,9.4,32.3c2.5,5.7,2.3,9.4-0.2,11.9c0,0.1,0,0.3,0.1,0.4c1.5-1.1,3-2.4,4.3-3.7
				c0.1-0.5,0.2-1.1,0.2-1.6C50.1,59.5,50.1,59.2,50.1,58.9L50.1,58.9z"/>
			<path class="st3" d="M-13.7,54.8c-0.1,0-0.2,0-0.3,0v0.1c0.3,0,0.5,0,0.8,0C-13.3,54.8-13.5,54.8-13.7,54.8z"/>
		</g>
		<path class="st4" d="M39.9,58.7c-2.5-1.5-7.3-3.5-12-4.8v2.7c0,1.4-3.2,2.6-7.1,2.6c-0.3,0-0.7,0-1,0c3.5-0.2,6.2-1.3,6.2-2.6
			V46.2c-1.6,1.2-3.4,2-5.2,2c-0.2,0-0.3,0-0.5,0s-0.3,0-0.5-0.1l0,0l0,0c-2.2-0.3-4.3-1.7-6.2-3.5v8.9c-5.3,1.3-11.2,3.5-14,5.3
			c-2,1.3-3.1,3.3-3.6,5.8c-0.1,0.3-0.1,0.5-0.1,0.8c2,1.5,4.1,2.8,6.3,3.9c0.4-2.6,1.4-6.3,4.1-7.2c4.1,5.7,14.3,0.1,14.6,11l0,0
			c0.3-10.9,10.4-5.3,14.5-11c2.7,0.9,3.7,4.6,4.1,7.2c1.6-0.8,3.1-1.7,4.5-2.6C43.5,63.1,42.5,60.3,39.9,58.7z"/>
		<path class="st5" d="M43.8,60.5c-0.5-0.7-1.2-1.3-2-1.8c-2.8-1.8-8.7-4-14-5.3v-8.9c-0.6,0.6-1.3,1.2-1.9,1.7v10.4
			c0,1.3-2.7,2.4-6.2,2.6c0.3,0,0.6,0,1,0c3.9,0,7.1-1.2,7.1-2.6v-2.7c4.7,1.3,9.6,3.2,12,4.8c2.6,1.6,3.6,4.4,4,7.8
			c0.6-0.4,1.2-0.8,1.8-1.3c0-0.1,0-0.3-0.1-0.4C45.3,63.1,44.7,61.7,43.8,60.5z"/>
		<g>
			<path class="st6" d="M20.2,48.1c-0.2,0-0.3,0-0.5-0.1C19.9,48.1,20.1,48.1,20.2,48.1z"/>
			<path class="st6" d="M31.8,34.5V18.9c-3.1,0.1-6.6,0.2-11,0.2c-5.4,0-9.5-0.1-13-0.3v15.7c0,2.1,2.5,6.7,5.8,10
				c1.9,1.8,4,3.2,6.2,3.5C25.9,47.1,31.8,37.7,31.8,34.5z"/>
		</g>
		<path class="st7" d="M33.7,34.5V18.8c-0.6,0-1.3,0.1-1.9,0.1v15.6c0,3.2-5.9,12.6-12,13.6l0,0l0,0c0.2,0,0.3,0,0.5,0.1
			c0.2,0,0.3,0,0.5,0c1.8,0,3.5-0.8,5.2-2c0.7-0.5,1.3-1,1.9-1.7C31.3,41.2,33.7,36.6,33.7,34.5z"/>
		<path class="st8" d="M31.8,18.9c0.7,0,1.3-0.1,1.9-0.1v-0.5v-3.9c-3.8-0.2-10.5-3.4-13-6.5c-2.5,3.1-9.2,6.2-13,6.5v3.9v0.5
			c3.5,0.2,7.6,0.3,13,0.3C25.1,19.1,28.7,19,31.8,18.9z M19.9,13.6l0.9-2.7l0.9,2.7h2.8l-2.3,1.7l0.9,2.7l-2.3-1.7L18.5,18l0.9-2.7
			L17,13.6H19.9z"/>
		<polygon class="st1" points="18.4,17.9 20.7,16.3 23,17.9 22.2,15.2 24.5,13.6 21.6,13.6 20.7,10.8 19.9,13.6 17,13.6 19.3,15.2 
					"/>
		<ellipse class="st9" cx="14.9" cy="24.8" rx="2.6" ry="1.9"/>
		<circle class="st2" cx="14.9" cy="24.8" r="1.3"/>
		<ellipse class="st9" cx="26.6" cy="24.8" rx="2.6" ry="1.9"/>
		<circle class="st2" cx="26.6" cy="24.8" r="1.3"/>
	</g>
</g>
</svg>
